<svg xmlns="http://www.w3.org/2000/svg" xmlns:xlink="http://www.w3.org/1999/xlink" width="940" zoomAndPan="magnify" viewBox="0 0 705 591.000005" height="788" preserveAspectRatio="xMidYMid meet" version="1.0"><defs><filter x="0%" y="0%" width="100%" height="100%" id="73b282ee80"><feColorMatrix values="0 0 0 0 1 0 0 0 0 1 0 0 0 0 1 0 0 0 1 0" color-interpolation-filters="sRGB"/></filter><mask id="c413919473"><g filter="url(#73b282ee80)"><rect x="-70.5" width="846" fill="#000000" y="-59.100001" height="709.200006" fill-opacity="0.18"/></g></mask><clipPath id="751304165b"><path d="M 4.921875 5 L 345.867188 5 L 345.867188 313.617188 L 4.921875 313.617188 Z M 4.921875 5 " clip-rule="nonzero"/></clipPath><clipPath id="557738ec92"><path d="M 4.9375 147.179688 C 5.042969 144.890625 5.042969 143.691406 5.042969 143.691406 C 5.042969 143.691406 5.371094 142.601562 5.589844 141.949219 C 5.699219 141.40625 6.023438 140.316406 6.023438 140.316406 C 6.023438 140.316406 6.679688 139.335938 6.894531 138.792969 C 7.222656 138.246094 7.550781 137.921875 7.875 137.265625 C 8.421875 136.175781 8.855469 134.214844 9.726562 132.800781 C 10.492188 131.492188 12.449219 129.859375 12.667969 129.207031 C 12.777344 128.988281 12.777344 128.769531 12.777344 128.769531 C 12.777344 128.769531 13.214844 127.683594 13.429688 127.136719 C 13.539062 126.59375 13.976562 125.503906 13.976562 125.503906 C 13.976562 125.394531 14.628906 124.523438 15.066406 123.980469 C 15.390625 123.542969 16.046875 122.5625 16.046875 122.5625 C 16.046875 122.5625 16.917969 121.800781 17.351562 121.363281 C 17.789062 121.039062 18.660156 120.277344 18.660156 120.277344 C 18.660156 120.277344 19.640625 119.730469 20.183594 119.402344 C 20.730469 119.1875 21.707031 118.640625 21.707031 118.640625 C 21.816406 118.640625 22.90625 118.316406 23.453125 118.207031 C 23.996094 118.097656 25.195312 117.769531 25.195312 117.769531 C 25.195312 117.769531 26.390625 117.769531 26.9375 117.769531 C 27.480469 117.769531 28.679688 117.769531 28.679688 117.769531 C 28.679688 117.769531 29.878906 118.097656 30.421875 118.207031 C 30.75 118.316406 30.859375 118.421875 31.402344 118.421875 C 32.925781 118.421875 37.175781 116.355469 40.550781 115.59375 C 44.472656 114.71875 49.375 114.066406 53.839844 113.742188 C 58.304688 113.523438 62.660156 113.742188 67.128906 113.742188 C 71.8125 113.847656 76.601562 113.742188 81.179688 113.847656 C 85.425781 113.847656 89.347656 113.847656 93.484375 113.847656 C 97.625 113.847656 101.980469 113.847656 106.121094 113.847656 C 110.257812 113.847656 113.851562 113.742188 118.210938 113.847656 C 123.328125 114.066406 130.953125 112.433594 134.65625 115.15625 C 138.359375 117.878906 139.449219 129.859375 140.539062 129.859375 C 140.972656 129.96875 141.410156 128.445312 141.410156 128.445312 C 141.410156 128.335938 140.972656 118.96875 140.972656 114.503906 C 140.972656 110.253906 141.300781 106.660156 141.410156 101.976562 C 141.519531 96.097656 141.519531 89.015625 141.625 82.046875 C 141.734375 74.421875 142.0625 65.054688 142.171875 58.082031 C 142.28125 52.527344 142.28125 48.171875 142.28125 43.488281 C 142.28125 39.242188 141.082031 35.210938 142.171875 31.070312 C 143.261719 26.390625 146.308594 20.941406 149.578125 17.023438 C 152.734375 13.320312 157.09375 9.722656 161.230469 8.089844 C 165.152344 6.566406 169.507812 7.328125 173.757812 7.21875 C 178.222656 7 183.125 7.21875 187.589844 7 C 191.730469 6.894531 195.648438 6.457031 199.679688 6.238281 C 203.601562 6.019531 207.523438 5.695312 211.660156 5.476562 C 216.015625 5.367188 220.699219 5.476562 225.167969 5.367188 C 229.414062 5.367188 233.660156 5.367188 237.910156 5.367188 C 242.375 5.367188 246.839844 5.367188 251.523438 5.257812 C 256.644531 5.257812 262.523438 5.257812 267.425781 5.257812 C 271.890625 5.367188 275.703125 5.367188 279.84375 5.367188 C 283.980469 5.257812 288.230469 5.257812 292.367188 5.257812 C 296.507812 5.257812 300.644531 5.042969 304.894531 5.257812 C 309.25 5.367188 313.714844 5.367188 318.074219 6.457031 C 322.757812 7.546875 328.09375 8.960938 331.796875 11.902344 C 335.71875 15.0625 340.292969 21.378906 340.945312 24.863281 C 341.273438 26.824219 339.203125 29.113281 339.421875 29.984375 C 339.527344 30.527344 339.964844 30.527344 340.402344 30.855469 C 340.726562 31.179688 341.597656 31.945312 341.597656 31.945312 C 341.597656 31.945312 342.253906 32.925781 342.578125 33.359375 C 342.90625 33.902344 343.558594 34.777344 343.558594 34.777344 C 343.558594 34.777344 343.996094 35.863281 344.210938 36.410156 C 344.429688 36.953125 344.757812 37.933594 344.757812 38.042969 C 344.757812 38.042969 344.976562 39.132812 344.976562 39.675781 C 345.085938 40.332031 345.191406 41.417969 345.191406 41.417969 C 345.191406 41.417969 345.957031 50.570312 345.191406 54.707031 C 344.539062 58.628906 341.054688 64.617188 341.378906 65.707031 C 341.378906 66.035156 341.707031 66.144531 341.707031 66.144531 C 341.707031 66.144531 342.359375 67.015625 342.6875 67.558594 C 343.015625 67.996094 343.667969 68.976562 343.667969 68.976562 C 343.667969 68.976562 344.105469 70.066406 344.320312 70.609375 C 344.539062 71.152344 344.976562 72.132812 344.976562 72.242188 C 344.976562 72.242188 345.085938 73.332031 345.191406 73.875 C 345.191406 74.53125 345.300781 75.621094 345.410156 75.621094 C 345.410156 75.621094 345.410156 84.550781 345.410156 88.90625 C 345.410156 93.046875 345.738281 97.183594 345.410156 101.324219 C 345.085938 105.460938 344.105469 109.492188 343.230469 113.523438 C 342.359375 117.445312 339.964844 123.214844 340.183594 124.957031 C 340.183594 125.613281 340.507812 125.722656 340.726562 126.15625 C 340.945312 126.59375 341.488281 127.683594 341.597656 127.683594 C 341.597656 127.683594 341.816406 128.769531 341.925781 129.316406 C 342.144531 129.859375 342.359375 130.949219 342.359375 131.058594 C 342.359375 131.058594 342.359375 132.148438 342.359375 132.800781 C 342.359375 133.34375 342.359375 134.433594 342.359375 134.433594 C 342.359375 134.542969 342.144531 135.632812 341.925781 136.175781 C 341.816406 136.722656 341.597656 137.8125 341.597656 137.8125 C 341.488281 137.921875 341.054688 138.898438 340.726562 139.335938 C 340.507812 139.878906 339.964844 140.859375 339.964844 140.96875 C 339.964844 140.96875 339.203125 141.730469 338.765625 142.167969 C 338.441406 142.601562 337.675781 143.476562 337.675781 143.476562 C 337.570312 143.476562 336.699219 144.128906 336.261719 144.453125 C 335.71875 144.78125 334.847656 145.433594 334.738281 145.433594 C 334.738281 145.433594 333.757812 145.871094 333.210938 146.089844 C 332.667969 146.304688 331.578125 146.742188 331.578125 146.742188 C 331.578125 146.742188 330.378906 146.851562 329.835938 146.960938 C 329.289062 146.960938 328.09375 147.070312 328.09375 147.070312 C 328.09375 147.179688 319.160156 147.613281 314.804688 147.613281 C 310.667969 147.722656 305.113281 147.503906 302.28125 147.722656 C 300.863281 147.832031 300.210938 147.613281 299.011719 148.265625 C 297.160156 149.355469 293.566406 152.515625 292.804688 155.671875 C 291.714844 159.484375 294.65625 165.039062 295.308594 169.941406 C 295.960938 174.953125 296.941406 185.191406 296.941406 185.191406 C 296.941406 185.300781 297.050781 186.386719 297.050781 186.933594 C 297.160156 187.585938 297.269531 188.675781 297.269531 188.675781 C 297.269531 188.785156 297.050781 189.875 297.050781 190.417969 C 296.941406 191.070312 296.832031 192.160156 296.832031 192.160156 C 296.726562 192.160156 296.398438 193.25 296.179688 193.792969 C 295.960938 194.339844 295.527344 195.429688 295.527344 195.429688 C 295.417969 195.429688 294.765625 196.410156 294.4375 196.84375 C 294.109375 197.390625 293.457031 198.261719 293.457031 198.261719 C 293.457031 198.261719 292.585938 199.023438 292.148438 199.457031 C 291.605469 199.785156 290.734375 200.546875 290.734375 200.546875 C 290.734375 200.546875 289.753906 201.09375 289.210938 201.308594 C 288.664062 201.636719 287.683594 202.070312 287.683594 202.179688 C 287.574219 202.179688 287.574219 202.179688 287.574219 202.179688 C 287.574219 202.179688 286.488281 202.398438 285.941406 202.507812 C 285.398438 202.617188 284.199219 202.945312 284.199219 202.945312 C 284.199219 202.945312 283 202.835938 282.457031 202.835938 C 281.910156 202.835938 280.714844 202.835938 280.714844 202.835938 C 280.714844 202.835938 279.625 202.507812 278.972656 202.398438 C 278.425781 202.289062 277.335938 201.964844 277.335938 201.964844 C 277.335938 201.964844 276.25 201.417969 275.8125 201.09375 C 275.269531 200.765625 274.289062 200.21875 274.289062 200.21875 C 274.179688 200.21875 273.417969 199.457031 272.980469 199.023438 C 272.546875 198.695312 271.671875 197.933594 271.671875 197.824219 C 271.671875 197.824219 271.019531 196.953125 270.695312 196.410156 C 270.367188 195.972656 269.714844 194.992188 269.714844 194.992188 C 269.714844 194.882812 269.277344 193.578125 269.167969 193.359375 C 269.167969 193.25 269.167969 193.25 269.058594 193.140625 C 269.058594 193.03125 268.84375 192.921875 268.625 192.8125 C 268.296875 192.488281 267.207031 191.726562 267.207031 191.726562 C 267.207031 191.726562 266.445312 190.855469 266.117188 190.417969 C 265.792969 189.980469 265.03125 189.003906 265.03125 189.003906 C 265.03125 189.003906 264.59375 188.023438 264.265625 187.476562 C 264.050781 186.933594 263.613281 185.84375 263.613281 185.84375 C 263.503906 185.84375 264.484375 188.238281 264.484375 188.238281 C 264.375 188.238281 261.328125 179.527344 258.820312 175.714844 C 256.425781 172.011719 252.832031 169.179688 249.78125 165.476562 C 246.40625 161.554688 239.652344 152.734375 239.542969 152.734375 C 239.542969 152.734375 238.671875 151.96875 238.234375 151.535156 C 237.800781 151.207031 236.929688 150.445312 236.929688 150.445312 C 236.929688 150.445312 236.277344 149.464844 235.949219 149.03125 C 235.621094 148.59375 234.96875 147.613281 234.96875 147.613281 C 234.96875 147.613281 234.96875 147.179688 234.75 146.960938 C 233.554688 146.199219 224.730469 146.960938 220.917969 146.960938 C 218.414062 146.960938 215.800781 145.761719 214.492188 146.960938 C 212.96875 148.59375 214.492188 154.367188 214.492188 158.179688 C 214.492188 162.207031 214.601562 166.457031 214.492188 170.59375 C 214.382812 174.734375 213.839844 178.871094 213.621094 182.792969 C 213.402344 186.714844 212.96875 192.050781 213.078125 194.230469 C 213.078125 195.210938 213.292969 195.210938 213.292969 196.191406 C 213.511719 198.585938 213.292969 204.6875 213.292969 208.824219 C 213.292969 212.855469 213.292969 218.628906 213.292969 220.804688 C 213.292969 221.785156 213.292969 222.222656 213.292969 222.65625 C 213.292969 222.984375 213.402344 222.984375 213.402344 223.203125 C 213.402344 224.835938 213.402344 237.796875 213.402344 237.796875 C 213.402344 237.796875 213.183594 238.996094 213.183594 239.539062 C 213.078125 240.085938 212.96875 241.28125 212.96875 241.28125 C 212.96875 241.28125 212.53125 242.371094 212.3125 242.917969 C 212.097656 243.460938 211.769531 244.550781 211.660156 244.550781 C 211.660156 244.550781 211.007812 245.53125 210.679688 245.964844 C 210.351562 246.511719 209.699219 247.382812 209.699219 247.382812 C 209.699219 247.492188 208.828125 248.253906 208.394531 248.578125 C 207.957031 249.015625 207.085938 249.777344 207.085938 249.777344 C 207.085938 249.777344 205.996094 250.324219 205.5625 250.539062 C 205.125 250.757812 204.582031 250.976562 204.363281 251.195312 C 204.253906 251.410156 204.363281 251.519531 204.253906 251.738281 C 204.253906 252.175781 204.144531 253.480469 204.144531 253.480469 C 204.035156 253.480469 203.710938 254.570312 203.492188 255.113281 C 203.273438 255.660156 202.839844 256.75 202.839844 256.75 C 202.839844 256.75 202.183594 257.730469 201.859375 258.164062 C 201.53125 258.601562 200.878906 259.582031 200.878906 259.582031 C 200.878906 259.582031 200.007812 260.34375 199.570312 260.777344 C 199.136719 261.105469 198.261719 261.867188 198.261719 261.867188 C 198.261719 261.867188 197.285156 262.414062 196.738281 262.738281 C 196.195312 262.957031 195.214844 263.5 195.214844 263.5 C 195.214844 263.5 194.125 263.828125 193.582031 263.9375 C 192.925781 264.046875 191.835938 264.371094 191.835938 264.371094 C 191.835938 264.371094 190.640625 264.371094 190.09375 264.371094 C 189.550781 264.371094 188.351562 264.371094 188.351562 264.371094 C 188.351562 264.371094 187.261719 264.046875 186.71875 263.9375 C 186.175781 263.828125 184.976562 263.5 184.976562 263.5 C 184.976562 263.5 184.429688 262.957031 183.886719 262.957031 C 182.035156 262.847656 176.480469 266.332031 172.234375 267.3125 C 167.332031 268.511719 161.339844 268.949219 156.332031 269.054688 C 151.972656 269.164062 146.203125 268.621094 143.804688 268.292969 C 142.824219 268.183594 142.5 267.859375 141.84375 267.859375 C 141.300781 267.859375 140.320312 268.074219 140.320312 268.074219 C 140.320312 268.183594 139.230469 268.074219 138.578125 267.96875 C 138.03125 267.96875 136.941406 267.859375 136.941406 267.859375 C 136.941406 267.859375 136.941406 267.859375 136.835938 267.859375 C 136.835938 267.859375 135.746094 267.53125 135.199219 267.421875 C 134.65625 267.203125 133.566406 266.878906 133.566406 266.878906 C 133.566406 266.878906 132.585938 266.222656 132.152344 265.898438 C 131.605469 265.679688 130.625 265.027344 130.625 265.027344 C 130.625 265.027344 129.753906 264.15625 129.429688 263.828125 C 129.101562 263.5 128.773438 263.066406 128.664062 263.066406 C 128.558594 262.957031 128.449219 263.066406 128.449219 263.066406 C 128.449219 263.066406 127.359375 263.285156 126.8125 263.390625 C 126.269531 263.5 125.179688 263.71875 125.070312 263.71875 C 125.070312 263.71875 123.980469 263.609375 123.4375 263.609375 C 122.894531 263.609375 121.695312 263.5 121.695312 263.5 C 121.695312 263.5 120.496094 262.957031 120.277344 263.066406 C 120.0625 263.175781 120.277344 264.15625 120.277344 264.15625 C 120.277344 264.15625 120.0625 265.242188 119.953125 265.679688 C 119.84375 266.222656 119.515625 267.3125 119.515625 267.3125 C 119.515625 267.3125 119.082031 268.292969 118.753906 268.730469 C 118.535156 269.273438 118.101562 270.144531 118.101562 270.253906 C 118.101562 270.253906 117.339844 271.015625 117.011719 271.453125 C 116.683594 271.886719 115.921875 272.652344 115.921875 272.652344 C 115.921875 272.652344 115.050781 273.304688 114.617188 273.628906 C 114.179688 273.957031 113.308594 274.503906 113.308594 274.609375 C 113.308594 274.609375 112.328125 274.9375 111.785156 275.15625 C 111.238281 275.375 110.257812 275.699219 110.257812 275.699219 C 110.257812 275.808594 109.167969 275.917969 108.625 275.917969 C 108.082031 276.027344 107.101562 276.136719 106.992188 276.136719 C 106.992188 276.246094 102.417969 283.976562 98.714844 286.375 C 94.464844 289.097656 84.117188 287.789062 82.050781 290.296875 C 80.960938 291.820312 81.941406 294.105469 81.941406 295.957031 C 81.941406 297.703125 81.941406 299.878906 81.832031 301.40625 C 81.832031 302.492188 81.722656 303.363281 81.503906 304.238281 C 81.285156 305.214844 80.960938 306.195312 80.523438 307.066406 C 79.980469 307.941406 79.433594 308.703125 78.78125 309.464844 C 78.128906 310.226562 77.367188 310.878906 76.601562 311.425781 C 75.839844 311.96875 74.859375 312.40625 73.988281 312.730469 C 73.117188 313.167969 72.136719 313.386719 71.15625 313.496094 C 70.175781 313.601562 69.195312 313.601562 68.214844 313.496094 C 67.238281 313.386719 66.257812 313.167969 65.382812 312.730469 C 64.40625 312.40625 63.53125 311.96875 62.769531 311.425781 C 61.898438 310.878906 61.136719 310.226562 60.484375 309.464844 C 59.9375 308.703125 59.285156 307.941406 58.851562 307.066406 C 58.414062 306.195312 58.085938 305.214844 57.871094 304.238281 C 57.542969 303.363281 57.433594 301.40625 57.433594 301.40625 C 57.433594 301.40625 57.433594 298.136719 57.324219 295.957031 C 57.324219 292.691406 56.890625 288.007812 57.105469 283.867188 C 57.324219 279.402344 57.871094 272.324219 58.742188 270.253906 C 59.066406 269.492188 59.9375 269.273438 59.828125 268.839844 C 59.394531 267.859375 53.949219 267.640625 50.789062 266.878906 C 47.195312 265.898438 42.730469 265.027344 39.246094 263.285156 C 35.867188 261.539062 32.820312 256.75 30.203125 256.3125 C 28.570312 255.984375 27.480469 258.054688 25.847656 257.730469 C 23.015625 257.292969 18.222656 252.609375 15.5 249.234375 C 12.667969 245.746094 10.273438 241.390625 9.074219 237.253906 C 7.875 233.332031 7.984375 229.191406 7.769531 225.054688 C 7.550781 220.914062 7.769531 216.777344 7.769531 212.636719 C 7.769531 208.5 7.769531 204.359375 7.769531 200.113281 C 7.769531 195.972656 7.660156 191.941406 7.769531 187.585938 C 7.875 182.902344 7.984375 178 8.53125 173.101562 C 8.964844 168.089844 10.492188 159.269531 10.707031 157.960938 C 10.707031 157.742188 10.707031 157.632812 10.707031 157.632812 C 10.597656 157.632812 9.292969 156.652344 9.292969 156.542969 C 9.292969 156.542969 8.53125 155.671875 8.203125 155.238281 C 7.769531 154.800781 7.113281 153.820312 7.113281 153.820312 C 7.003906 153.820312 6.570312 152.734375 6.351562 152.296875 C 6.023438 151.753906 5.589844 150.664062 5.589844 150.664062 C 5.589844 150.664062 5.371094 149.464844 5.261719 148.921875 C 5.152344 148.375 4.9375 147.179688 4.9375 147.179688 M 129.320312 188.238281 C 141.734375 189.546875 141.84375 188.023438 141.300781 187.585938 C 140.539062 186.714844 135.855469 187.914062 133.675781 188.128906 C 131.933594 188.128906 129.320312 188.238281 129.320312 188.238281 " clip-rule="nonzero"/></clipPath><clipPath id="77346900aa"><rect x="0" width="351" y="0" height="319"/></clipPath><clipPath id="0aeef9863e"><path d="M 176.035156 123.347656 L 528.6875 123.347656 L 528.6875 467 L 176.035156 467 Z M 176.035156 123.347656 " clip-rule="nonzero"/></clipPath></defs><g mask="url(#c413919473)"><g transform="matrix(1, 0, 0, 1, 177, 128)"><g clip-path="url(#77346900aa)"><g clip-path="url(#751304165b)"><g clip-path="url(#557738ec92)"><path fill="#f4cf76" d="M 0.578125 0.902344 L 350.210938 0.902344 L 350.210938 317.960938 L 0.578125 317.960938 Z M 0.578125 0.902344 " fill-opacity="1" fill-rule="nonzero"/></g></g></g></g></g><g clip-path="url(#0aeef9863e)"><path fill="#f4cf76" d="M 494.175781 123.347656 L 342.25 123.347656 C 321.230469 128.902344 308.398438 141.636719 306.960938 164.765625 C 307.105469 169.21875 307.246094 173.671875 307.390625 178.074219 C 307.390625 186.214844 307.34375 193.78125 307.390625 201.394531 C 307.390625 213.125 307.296875 224.902344 307.34375 236.632812 L 210.71875 236.632812 C 208.660156 237.0625 206.640625 237.636719 204.664062 238.347656 C 202.683594 239.058594 200.761719 239.902344 198.902344 240.878906 C 197.039062 241.855469 195.253906 242.960938 193.542969 244.183594 C 191.835938 245.410156 190.21875 246.746094 188.695312 248.199219 C 187.171875 249.648438 185.753906 251.195312 184.445312 252.84375 C 183.136719 254.488281 181.949219 256.21875 180.878906 258.027344 C 179.8125 259.839844 178.871094 261.71875 178.066406 263.660156 C 177.257812 265.601562 176.585938 267.589844 176.054688 269.625 L 176.054688 368.640625 C 176.621094 373.792969 178.328125 378.53125 181.175781 382.863281 C 183.210938 385.683594 185.605469 388.160156 188.359375 390.285156 C 191.113281 392.414062 194.113281 394.105469 197.359375 395.359375 C 203.71875 398.410156 210.421875 399.957031 217.472656 400.003906 L 228.53125 400.003906 L 228.53125 431.507812 C 228.820312 443.191406 229.152344 454.921875 229.441406 466.652344 C 235.089844 461.289062 239.925781 456.597656 243.710938 452.910156 C 255.585938 441.277344 261.378906 435.339844 268.558594 427.679688 C 274.640625 421.261719 274.929688 420.878906 277.800781 417.910156 C 290.921875 404.214844 294.367188 402.589844 296.140625 401.871094 C 299.71875 400.34375 303.453125 399.65625 307.34375 399.8125 C 323.527344 400.433594 339.757812 400.097656 355.992188 400.003906 C 357.367188 400.0625 358.742188 400.050781 360.117188 399.964844 C 361.492188 399.882812 362.859375 399.726562 364.21875 399.5 C 365.578125 399.273438 366.921875 398.980469 368.25 398.613281 C 369.578125 398.246094 370.882812 397.8125 372.167969 397.3125 C 373.449219 396.8125 374.703125 396.246094 375.929688 395.613281 C 377.152344 394.984375 378.339844 394.289062 379.496094 393.535156 C 380.648438 392.78125 381.757812 391.96875 382.824219 391.101562 C 383.894531 390.230469 384.914062 389.308594 385.886719 388.332031 C 386.859375 387.355469 387.777344 386.332031 388.644531 385.261719 C 389.511719 384.1875 390.320312 383.074219 391.070312 381.921875 C 391.820312 380.765625 392.507812 379.574219 393.136719 378.347656 C 393.761719 377.121094 394.324219 375.867188 394.820312 374.582031 C 395.316406 373.296875 395.746094 371.988281 396.109375 370.660156 C 396.46875 369.328125 396.757812 367.984375 396.980469 366.625 C 397.203125 365.265625 397.351562 363.898438 397.429688 362.523438 C 397.511719 361.148438 397.519531 359.769531 397.457031 358.394531 C 397.597656 343.839844 397.503906 329.234375 397.503906 314.679688 L 397.503906 291.410156 L 397.648438 286.527344 C 401.503906 286.375 405.207031 287.0625 408.753906 288.585938 C 410.480469 289.300781 413.925781 290.882812 427.046875 304.625 C 429.917969 307.59375 430.253906 307.976562 436.285156 314.390625 C 443.515625 322.054688 449.308594 327.992188 461.183594 339.625 C 464.917969 343.3125 469.753906 348.003906 475.453125 353.367188 C 475.742188 341.636719 476.027344 329.921875 476.316406 318.222656 L 476.316406 286.71875 L 487.421875 286.71875 C 494.457031 286.664062 501.144531 285.117188 507.484375 282.074219 C 510.730469 280.816406 513.726562 279.121094 516.480469 276.996094 C 519.234375 274.871094 521.632812 272.394531 523.667969 269.574219 C 526.539062 265.234375 528.261719 260.476562 528.839844 255.308594 L 528.839844 156.335938 C 528.304688 154.304688 527.632812 152.316406 526.824219 150.375 C 526.015625 148.433594 525.074219 146.558594 524.007812 144.75 C 522.9375 142.9375 521.75 141.210938 520.4375 139.5625 C 519.128906 137.917969 517.714844 136.371094 516.191406 134.921875 C 514.667969 133.472656 513.050781 132.132812 511.34375 130.90625 C 509.632812 129.683594 507.851562 128.578125 505.988281 127.601562 C 504.128906 126.625 502.207031 125.777344 500.230469 125.066406 C 498.25 124.351562 496.230469 123.78125 494.175781 123.347656 Z M 384.238281 358.394531 C 384.308594 359.339844 384.324219 360.285156 384.289062 361.234375 C 384.253906 362.179688 384.167969 363.125 384.035156 364.0625 C 383.898438 365 383.714844 365.929688 383.480469 366.847656 C 383.242188 367.765625 382.960938 368.667969 382.628906 369.558594 C 382.296875 370.445312 381.921875 371.3125 381.496094 372.160156 C 381.074219 373.011719 380.605469 373.832031 380.09375 374.628906 C 379.578125 375.429688 379.027344 376.195312 378.433594 376.933594 C 377.835938 377.671875 377.207031 378.378906 376.535156 379.050781 C 375.867188 379.71875 375.164062 380.351562 374.425781 380.949219 C 373.6875 381.542969 372.921875 382.097656 372.125 382.613281 C 371.328125 383.125 370.503906 383.59375 369.65625 384.019531 C 368.808594 384.445312 367.941406 384.824219 367.054688 385.160156 C 366.167969 385.492188 365.265625 385.777344 364.347656 386.011719 C 363.429688 386.25 362.5 386.433594 361.5625 386.570312 C 360.625 386.710938 359.679688 386.796875 358.734375 386.832031 C 357.785156 386.867188 356.839844 386.851562 355.894531 386.789062 C 337.171875 386.929688 318.5 387.027344 299.777344 386.691406 C 298.425781 386.621094 297.078125 386.699219 295.742188 386.929688 C 294.40625 387.160156 293.113281 387.539062 291.859375 388.058594 C 290.609375 388.582031 289.429688 389.238281 288.328125 390.023438 C 287.222656 390.8125 286.21875 391.710938 285.316406 392.726562 C 278.421875 399.8125 270.761719 406.179688 264.441406 413.792969 C 257.300781 422.371094 249.449219 430.242188 240.882812 437.398438 C 241.027344 433.664062 241.554688 416.042969 241.792969 396.796875 C 241.953125 395.339844 241.8125 393.914062 241.378906 392.515625 C 240.949219 391.117188 240.257812 389.863281 239.304688 388.75 C 238.273438 387.949219 237.125 387.378906 235.863281 387.039062 C 234.601562 386.699219 233.320312 386.613281 232.027344 386.789062 C 227.09375 386.980469 222.117188 386.882812 217.183594 386.789062 C 216.253906 386.824219 215.324219 386.816406 214.394531 386.757812 C 213.46875 386.699219 212.542969 386.589844 211.628906 386.4375 C 210.710938 386.28125 209.804688 386.078125 208.90625 385.828125 C 208.011719 385.578125 207.128906 385.285156 206.261719 384.945312 C 205.398438 384.601562 204.550781 384.21875 203.726562 383.789062 C 202.902344 383.359375 202.101562 382.886719 201.324219 382.375 C 200.546875 381.863281 199.800781 381.3125 199.078125 380.722656 C 198.359375 380.132812 197.675781 379.503906 197.019531 378.84375 C 196.367188 378.179688 195.75 377.488281 195.167969 376.761719 C 194.585938 376.035156 194.042969 375.28125 193.539062 374.496094 C 193.035156 373.714844 192.574219 372.910156 192.15625 372.078125 C 191.738281 371.246094 191.363281 370.398438 191.03125 369.527344 C 190.699219 368.65625 190.414062 367.773438 190.175781 366.875 C 189.9375 365.976562 189.746094 365.066406 189.601562 364.144531 C 189.457031 363.226562 189.363281 362.304688 189.316406 361.375 C 189.265625 360.445312 189.269531 359.515625 189.316406 358.585938 C 189.171875 331.964844 189.171875 305.3125 189.316406 278.625 C 189.261719 277.695312 189.253906 276.765625 189.296875 275.832031 C 189.339844 274.902344 189.429688 273.976562 189.566406 273.054688 C 189.703125 272.132812 189.890625 271.21875 190.125 270.316406 C 190.355469 269.414062 190.636719 268.527344 190.960938 267.652344 C 191.285156 266.78125 191.65625 265.925781 192.070312 265.089844 C 192.484375 264.257812 192.941406 263.445312 193.441406 262.65625 C 193.9375 261.871094 194.476562 261.113281 195.054688 260.378906 C 195.632812 259.648438 196.246094 258.949219 196.898438 258.28125 C 197.546875 257.613281 198.230469 256.984375 198.949219 256.386719 C 199.664062 255.789062 200.410156 255.234375 201.183594 254.714844 C 201.957031 254.195312 202.757812 253.71875 203.582031 253.28125 C 204.40625 252.847656 205.25 252.457031 206.113281 252.109375 C 206.980469 251.761719 207.859375 251.457031 208.753906 251.203125 C 209.652344 250.945312 210.558594 250.738281 211.476562 250.574219 C 212.394531 250.414062 213.320312 250.300781 214.25 250.234375 C 215.179688 250.167969 216.109375 250.152344 217.039062 250.183594 C 247.253906 250.039062 277.464844 249.992188 307.679688 250.039062 C 307.796875 251.707031 308.019531 253.359375 308.347656 254.996094 C 308.675781 256.632812 309.105469 258.242188 309.640625 259.824219 C 310.171875 261.410156 310.804688 262.949219 311.535156 264.453125 C 312.269531 265.953125 313.089844 267.402344 314.007812 268.800781 C 314.925781 270.195312 315.925781 271.527344 317.011719 272.796875 C 318.097656 274.066406 319.261719 275.257812 320.5 276.378906 C 321.742188 277.5 323.046875 278.535156 324.417969 279.488281 C 325.789062 280.441406 327.214844 281.300781 328.699219 282.074219 C 331.832031 283.621094 335.101562 284.789062 338.503906 285.574219 C 341.910156 286.359375 345.359375 286.738281 348.855469 286.71875 C 354.21875 286.765625 359.582031 286.8125 364.945312 286.8125 C 371.359375 286.910156 377.824219 286.910156 384.238281 286.8125 C 384.382812 310.65625 384.382812 334.519531 384.238281 358.394531 Z M 515.578125 245.300781 C 515.625 246.230469 515.625 247.160156 515.574219 248.089844 C 515.527344 249.019531 515.429688 249.945312 515.285156 250.863281 C 515.140625 251.785156 514.945312 252.691406 514.707031 253.59375 C 514.46875 254.492188 514.179688 255.378906 513.847656 256.246094 C 513.515625 257.117188 513.140625 257.96875 512.722656 258.796875 C 512.300781 259.628906 511.839844 260.4375 511.332031 261.21875 C 510.828125 262 510.285156 262.753906 509.703125 263.480469 C 509.121094 264.207031 508.5 264.902344 507.847656 265.5625 C 507.191406 266.226562 506.503906 266.851562 505.785156 267.441406 C 505.0625 268.03125 504.316406 268.582031 503.539062 269.09375 C 502.757812 269.609375 501.957031 270.078125 501.132812 270.507812 C 500.304688 270.9375 499.457031 271.320312 498.59375 271.660156 C 497.726562 272.003906 496.84375 272.296875 495.945312 272.546875 C 495.050781 272.796875 494.140625 272.996094 493.222656 273.152344 C 492.304688 273.304688 491.382812 273.414062 490.453125 273.472656 C 489.523438 273.53125 488.59375 273.539062 487.664062 273.5 C 482.730469 273.597656 477.75 273.691406 472.820312 273.5 C 471.53125 273.316406 470.257812 273.394531 469 273.734375 C 467.746094 274.074219 466.609375 274.652344 465.589844 275.464844 C 464.632812 276.574219 463.933594 277.828125 463.492188 279.226562 C 463.050781 280.625 462.90625 282.050781 463.050781 283.507812 C 463.292969 302.757812 463.867188 320.328125 463.960938 324.113281 C 455.410156 316.941406 447.554688 309.074219 440.402344 300.507812 C 434.132812 292.894531 426.421875 286.527344 419.574219 279.4375 C 418.671875 278.421875 417.664062 277.519531 416.558594 276.734375 C 415.449219 275.945312 414.265625 275.289062 413.011719 274.765625 C 411.753906 274.242188 410.457031 273.867188 409.117188 273.636719 C 407.777344 273.410156 406.425781 273.332031 405.066406 273.40625 C 402.53125 273.453125 399.992188 273.5 397.457031 273.5 C 392.90625 273.550781 388.40625 273.597656 383.855469 273.597656 C 372.222656 273.644531 360.585938 273.550781 348.953125 273.5 C 333.34375 273.359375 322.90625 264.546875 320.988281 250.039062 C 320.738281 248.40625 320.609375 246.761719 320.605469 245.109375 L 320.605469 236.632812 C 320.511719 212.789062 320.460938 188.945312 320.605469 165.097656 C 320.546875 164.167969 320.539062 163.238281 320.578125 162.308594 C 320.617188 161.375 320.707031 160.449219 320.84375 159.527344 C 320.980469 158.605469 321.164062 157.691406 321.398438 156.789062 C 321.628906 155.886719 321.910156 155 322.238281 154.125 C 322.5625 153.253906 322.933594 152.398438 323.351562 151.566406 C 323.765625 150.730469 324.226562 149.921875 324.726562 149.136719 C 325.230469 148.347656 325.769531 147.59375 326.351562 146.863281 C 326.933594 146.136719 327.550781 145.4375 328.207031 144.773438 C 328.859375 144.109375 329.546875 143.484375 330.269531 142.890625 C 330.988281 142.300781 331.738281 141.75 332.519531 141.238281 C 333.296875 140.726562 334.101562 140.253906 334.929688 139.828125 C 335.757812 139.398438 336.605469 139.015625 337.476562 138.675781 C 338.34375 138.339844 339.226562 138.046875 340.125 137.800781 C 341.027344 137.558594 341.9375 137.359375 342.855469 137.210938 C 343.777344 137.058594 344.703125 136.960938 345.632812 136.90625 C 346.5625 136.855469 347.492188 136.851562 348.425781 136.898438 C 394.871094 136.660156 441.347656 136.660156 487.855469 136.898438 C 488.785156 136.867188 489.714844 136.882812 490.644531 136.949219 C 491.574219 137.015625 492.5 137.128906 493.417969 137.289062 C 494.335938 137.453125 495.242188 137.660156 496.136719 137.917969 C 497.035156 138.171875 497.914062 138.472656 498.78125 138.820312 C 499.644531 139.167969 500.488281 139.5625 501.3125 139.996094 C 502.136719 140.433594 502.9375 140.910156 503.710938 141.429688 C 504.484375 141.945312 505.230469 142.503906 505.945312 143.101562 C 506.664062 143.695312 507.347656 144.328125 507.996094 144.996094 C 508.648438 145.664062 509.261719 146.363281 509.839844 147.09375 C 510.417969 147.824219 510.957031 148.585938 511.453125 149.371094 C 511.953125 150.160156 512.410156 150.96875 512.824219 151.804688 C 513.238281 152.640625 513.609375 153.496094 513.933594 154.367188 C 514.257812 155.242188 514.539062 156.128906 514.769531 157.03125 C 515.003906 157.933594 515.191406 158.847656 515.328125 159.765625 C 515.464844 160.6875 515.554688 161.617188 515.597656 162.546875 C 515.640625 163.476562 515.632812 164.410156 515.578125 165.339844 C 515.722656 192.007812 515.722656 218.664062 515.578125 245.300781 Z M 486.941406 187.945312 L 351.253906 187.945312 C 350.785156 187.945312 350.316406 187.898438 349.855469 187.804688 C 349.390625 187.714844 348.941406 187.578125 348.507812 187.398438 C 348.070312 187.214844 347.65625 186.996094 347.265625 186.734375 C 346.871094 186.472656 346.511719 186.171875 346.175781 185.839844 C 345.84375 185.507812 345.546875 185.144531 345.28125 184.75 C 345.019531 184.359375 344.800781 183.945312 344.621094 183.511719 C 344.4375 183.074219 344.304688 182.625 344.210938 182.164062 C 344.117188 181.699219 344.074219 181.234375 344.074219 180.761719 C 344.074219 180.289062 344.117188 179.824219 344.210938 179.359375 C 344.304688 178.898438 344.4375 178.449219 344.621094 178.011719 C 344.800781 177.578125 345.019531 177.164062 345.28125 176.769531 C 345.546875 176.378906 345.84375 176.015625 346.175781 175.683594 C 346.511719 175.347656 346.871094 175.050781 347.265625 174.789062 C 347.65625 174.527344 348.070312 174.304688 348.507812 174.125 C 348.941406 173.945312 349.390625 173.808594 349.855469 173.71875 C 350.316406 173.625 350.785156 173.578125 351.253906 173.578125 L 486.941406 173.578125 C 487.410156 173.578125 487.878906 173.625 488.339844 173.71875 C 488.804688 173.808594 489.253906 173.945312 489.6875 174.125 C 490.125 174.304688 490.539062 174.527344 490.929688 174.789062 C 491.320312 175.050781 491.683594 175.347656 492.019531 175.683594 C 492.351562 176.015625 492.648438 176.378906 492.910156 176.769531 C 493.171875 177.164062 493.394531 177.578125 493.574219 178.011719 C 493.753906 178.449219 493.890625 178.898438 493.984375 179.359375 C 494.074219 179.824219 494.121094 180.289062 494.121094 180.761719 C 494.121094 181.234375 494.074219 181.699219 493.984375 182.164062 C 493.890625 182.625 493.753906 183.074219 493.574219 183.511719 C 493.394531 183.945312 493.171875 184.359375 492.910156 184.75 C 492.648438 185.144531 492.351562 185.507812 492.019531 185.839844 C 491.683594 186.171875 491.320312 186.472656 490.929688 186.734375 C 490.539062 186.996094 490.125 187.214844 489.6875 187.398438 C 489.253906 187.578125 488.804688 187.714844 488.339844 187.804688 C 487.878906 187.898438 487.410156 187.945312 486.941406 187.945312 Z M 438.480469 226.019531 L 355.410156 226.019531 C 354.9375 226.019531 354.472656 225.972656 354.011719 225.878906 C 353.546875 225.789062 353.097656 225.652344 352.664062 225.472656 C 352.226562 225.292969 351.8125 225.070312 351.421875 224.808594 C 351.027344 224.546875 350.664062 224.25 350.332031 223.914062 C 350 223.582031 349.703125 223.21875 349.4375 222.828125 C 349.175781 222.433594 348.957031 222.019531 348.777344 221.585938 C 348.59375 221.148438 348.457031 220.699219 348.367188 220.238281 C 348.273438 219.773438 348.230469 219.308594 348.230469 218.835938 C 348.230469 218.363281 348.273438 217.898438 348.367188 217.433594 C 348.457031 216.972656 348.59375 216.523438 348.777344 216.085938 C 348.957031 215.652344 349.175781 215.238281 349.4375 214.847656 C 349.703125 214.453125 350 214.089844 350.332031 213.757812 C 350.664062 213.425781 351.027344 213.125 351.421875 212.863281 C 351.8125 212.601562 352.226562 212.382812 352.664062 212.199219 C 353.097656 212.019531 353.546875 211.882812 354.011719 211.792969 C 354.472656 211.699219 354.9375 211.652344 355.410156 211.652344 L 438.480469 211.652344 C 438.949219 211.652344 439.417969 211.699219 439.878906 211.792969 C 440.34375 211.882812 440.792969 212.019531 441.226562 212.199219 C 441.664062 212.382812 442.078125 212.601562 442.46875 212.863281 C 442.863281 213.125 443.222656 213.425781 443.558594 213.757812 C 443.890625 214.089844 444.1875 214.453125 444.449219 214.847656 C 444.714844 215.238281 444.933594 215.652344 445.113281 216.085938 C 445.296875 216.523438 445.429688 216.972656 445.523438 217.433594 C 445.617188 217.898438 445.660156 218.363281 445.660156 218.835938 C 445.660156 219.308594 445.617188 219.773438 445.523438 220.238281 C 445.429688 220.699219 445.296875 221.148438 445.113281 221.585938 C 444.933594 222.019531 444.714844 222.433594 444.449219 222.828125 C 444.1875 223.21875 443.890625 223.582031 443.558594 223.914062 C 443.222656 224.25 442.863281 224.546875 442.46875 224.808594 C 442.078125 225.070312 441.664062 225.292969 441.226562 225.472656 C 440.792969 225.652344 440.34375 225.789062 439.878906 225.878906 C 439.417969 225.972656 438.949219 226.019531 438.480469 226.019531 Z M 353.609375 344.328125 L 217.925781 344.328125 C 217.453125 344.328125 216.988281 344.28125 216.523438 344.1875 C 216.0625 344.097656 215.613281 343.960938 215.175781 343.78125 C 214.742188 343.601562 214.328125 343.378906 213.9375 343.117188 C 213.542969 342.855469 213.179688 342.558594 212.847656 342.222656 C 212.515625 341.890625 212.214844 341.527344 211.953125 341.136719 C 211.691406 340.742188 211.472656 340.328125 211.289062 339.894531 C 211.109375 339.457031 210.972656 339.007812 210.882812 338.546875 C 210.789062 338.082031 210.742188 337.617188 210.742188 337.144531 C 210.742188 336.671875 210.789062 336.207031 210.882812 335.742188 C 210.972656 335.28125 211.109375 334.832031 211.289062 334.398438 C 211.472656 333.960938 211.691406 333.546875 211.953125 333.15625 C 212.214844 332.761719 212.515625 332.398438 212.847656 332.066406 C 213.179688 331.734375 213.542969 331.433594 213.9375 331.171875 C 214.328125 330.910156 214.742188 330.691406 215.175781 330.507812 C 215.613281 330.328125 216.0625 330.191406 216.523438 330.101562 C 216.988281 330.007812 217.453125 329.964844 217.925781 329.964844 L 353.609375 329.964844 C 354.082031 329.964844 354.550781 330.007812 355.011719 330.101562 C 355.472656 330.191406 355.921875 330.328125 356.359375 330.507812 C 356.792969 330.691406 357.207031 330.910156 357.601562 331.171875 C 357.992188 331.433594 358.355469 331.734375 358.6875 332.066406 C 359.023438 332.398438 359.320312 332.761719 359.582031 333.15625 C 359.84375 333.546875 360.066406 333.960938 360.246094 334.398438 C 360.425781 334.832031 360.5625 335.28125 360.65625 335.742188 C 360.746094 336.207031 360.792969 336.671875 360.792969 337.144531 C 360.792969 337.617188 360.746094 338.082031 360.65625 338.546875 C 360.5625 339.007812 360.425781 339.457031 360.246094 339.894531 C 360.066406 340.328125 359.84375 340.742188 359.582031 341.136719 C 359.320312 341.527344 359.023438 341.890625 358.6875 342.222656 C 358.355469 342.558594 357.992188 342.855469 357.601562 343.117188 C 357.207031 343.378906 356.792969 343.601562 356.359375 343.78125 C 355.921875 343.960938 355.472656 344.097656 355.011719 344.1875 C 354.550781 344.28125 354.082031 344.328125 353.609375 344.328125 Z M 218.503906 291.410156 L 301.574219 291.410156 C 302.046875 291.410156 302.511719 291.457031 302.976562 291.546875 C 303.4375 291.640625 303.886719 291.777344 304.320312 291.957031 C 304.757812 292.136719 305.171875 292.359375 305.5625 292.621094 C 305.957031 292.882812 306.320312 293.179688 306.652344 293.511719 C 306.984375 293.847656 307.285156 294.210938 307.546875 294.601562 C 307.808594 294.992188 308.027344 295.40625 308.210938 295.84375 C 308.390625 296.277344 308.527344 296.726562 308.617188 297.191406 C 308.710938 297.652344 308.753906 298.121094 308.753906 298.589844 C 308.753906 299.0625 308.710938 299.53125 308.617188 299.992188 C 308.527344 300.453125 308.390625 300.902344 308.210938 301.339844 C 308.027344 301.777344 307.808594 302.191406 307.546875 302.582031 C 307.285156 302.972656 306.984375 303.335938 306.652344 303.671875 C 306.320312 304.003906 305.957031 304.300781 305.5625 304.5625 C 305.171875 304.824219 304.757812 305.046875 304.320312 305.226562 C 303.886719 305.40625 303.4375 305.542969 302.976562 305.636719 C 302.511719 305.726562 302.046875 305.773438 301.574219 305.773438 L 218.503906 305.773438 C 218.035156 305.773438 217.566406 305.726562 217.105469 305.636719 C 216.640625 305.542969 216.191406 305.40625 215.757812 305.226562 C 215.320312 305.046875 214.90625 304.824219 214.515625 304.5625 C 214.121094 304.300781 213.761719 304.003906 213.425781 303.671875 C 213.09375 303.335938 212.796875 302.972656 212.535156 302.582031 C 212.269531 302.191406 212.050781 301.777344 211.871094 301.339844 C 211.6875 300.902344 211.554688 300.453125 211.460938 299.992188 C 211.367188 299.53125 211.324219 299.0625 211.324219 298.589844 C 211.324219 298.121094 211.367188 297.652344 211.460938 297.191406 C 211.554688 296.726562 211.6875 296.277344 211.871094 295.84375 C 212.050781 295.40625 212.269531 294.992188 212.535156 294.601562 C 212.796875 294.210938 213.09375 293.847656 213.425781 293.511719 C 213.761719 293.179688 214.121094 292.882812 214.515625 292.621094 C 214.90625 292.359375 215.320312 292.136719 215.757812 291.957031 C 216.191406 291.777344 216.640625 291.640625 217.105469 291.546875 C 217.566406 291.457031 218.035156 291.410156 218.503906 291.410156 Z M 218.503906 291.410156 " fill-opacity="1" fill-rule="nonzero"/></g></svg>